<?xml version="1.0" encoding="utf-8"?>
<!-- Generator: Adobe Illustrator 16.0.0, SVG Export Plug-In . SVG Version: 6.00 Build 0)  -->
<!DOCTYPE svg PUBLIC "-//W3C//DTD SVG 1.1//EN" "http://www.w3.org/Graphics/SVG/1.1/DTD/svg11.dtd">
<svg version="1.1" id="レイヤー_1" xmlns="http://www.w3.org/2000/svg" xmlns:xlink="http://www.w3.org/1999/xlink" x="0px"
	 y="0px" width="62.314px" height="42.71px" viewBox="0 0 62.314 42.71" enable-background="new 0 0 62.314 42.71"
	 xml:space="preserve">
<g>
	<path fill="#FDFBDF" d="M8.343,41.692c7.606,0.678,15.208,1.02,22.813,1.018c7.567,0.002,15.129-0.337,22.696-1.01
		c0.035-0.002,0.067-0.005,0.1-0.007l0,0c0.006-0.001,0.012-0.001,0.019-0.001l-0.076-0.85v-0.009l0.076,0.858
		c3.567-0.321,6.489-2.984,7.115-6.519c0.819-4.62,1.229-9.22,1.229-13.818c0-4.598-0.41-9.196-1.229-13.816
		c-0.626-3.534-3.548-6.2-7.115-6.519C46.368,0.34,38.764,0,31.159,0C23.556,0,15.95,0.341,8.343,1.021
		C4.776,1.339,1.852,4.005,1.226,7.541C0.408,12.158,0,16.756,0,21.357c0,4.597,0.407,9.196,1.226,13.816
		C1.852,38.708,4.776,41.371,8.343,41.692z M3.415,21.357c0-4.398,0.393-8.793,1.177-13.223c0.354-2.006,2.019-3.527,4.055-3.71
		c7.506-0.672,15.009-1.007,22.512-1.009c7.503,0.002,15.006,0.337,22.505,1.009c2.037,0.183,3.701,1.704,4.057,3.71
		c0.785,4.43,1.176,8.824,1.176,13.221c0,4.396-0.391,8.791-1.176,13.223c-0.355,2.005-2.02,3.526-4.057,3.71
		c-7.502,0.67-15.006,1.007-22.508,1.007c-7.5,0-15.003-0.337-22.509-1.007c-2.036-0.184-3.701-1.705-4.055-3.71
		C3.807,30.146,3.415,25.752,3.415,21.357z"/>
	<path fill="#FDFBDF" d="M27.521,29.145l12.068-6.966c0.635-0.365,0.635-1.28,0-1.646l-12.068-6.968
		c-0.632-0.364-1.423,0.094-1.423,0.822v13.936C26.099,29.054,26.89,29.512,27.521,29.145z"/>
</g>
</svg>
